<?xml version="1.0" standalone="no"?>
<!DOCTYPE svg PUBLIC "-//W3C//DTD SVG 20010904//EN"
 "http://www.w3.org/TR/2001/REC-SVG-20010904/DTD/svg10.dtd">
<svg version="1.0" xmlns="http://www.w3.org/2000/svg"
 width="1262.000000pt" height="1280.000000pt" viewBox="0 0 1262.000000 1280.000000"
 preserveAspectRatio="xMidYMid meet">
<metadata>
Created by potrace 1.15, written by Peter Selinger 2001-2017
</metadata>
<g transform="translate(0.000000,1280.000000) scale(0.100000,-0.100000)"
fill="#FFFFFF" stroke="none">
<path d="M669 12214 c-59 -18 -130 -81 -160 -141 l-24 -48 0 -5650 0 -5650 23
-47 c13 -26 43 -65 67 -87 83 -77 -104 -71 2295 -71 2400 0 2212 -6 2295 71
24 23 54 62 67 87 l23 47 0 5650 0 5650 -23 47 c-13 25 -43 64 -67 87 -83 77
105 71 -2299 70 -1824 0 -2158 -3 -2197 -15z"/>
<path d="M7542 12211 c-63 -22 -123 -76 -155 -141 l-22 -45 0 -5650 0 -5650
23 -47 c13 -25 43 -64 67 -87 83 -77 -105 -71 2295 -71 2399 0 2212 -6 2295
71 24 22 54 61 67 87 l23 47 0 5650 0 5650 -24 48 c-31 63 -101 123 -164 142
-44 13 -321 15 -2201 15 -2062 -1 -2153 -1 -2204 -19z"/>
</g>
</svg>
